<svg width="48" height="48" viewBox="0 0 48 48" fill="none" xmlns="http://www.w3.org/2000/svg">
  <rect width="48" height="48" rx="24" fill="url(#paint0_linear)" fill-opacity="0.1"/>
  <path d="M36 24.9C36 25.2 35.9 25.5 35.8 25.8C35.7 26.1 35.5 26.3 35.3 26.6C34.9 27 34.5 27.3 34 27.5C33.5 27.7 33 27.8 32.4 27.8C31.8 27.8 31.2 27.7 30.7 27.5C30.2 27.3 29.7 27 29.3 26.6L27.2 24.5C26.8 24.1 26.5 23.6 26.3 23.1C26.1 22.6 26 22 26 21.4C26 20.8 26.1 20.3 26.3 19.8C26.5 19.3 26.8 18.8 27.2 18.4C27.6 18 28.1 17.7 28.6 17.5C29.1 17.3 29.7 17.2 30.3 17.2C30.9 17.2 31.5 17.3 32 17.5C32.5 17.7 33 18 33.4 18.4L35.3 20.3C35.5 20.5 35.7 20.8 35.8 21.1C35.9 21.4 36 21.7 36 22C36 22.3 35.9 22.6 35.8 22.9C35.7 23.2 35.5 23.4 35.3 23.6C35.1 23.8 34.8 24 34.5 24.1C34.2 24.2 33.9 24.3 33.6 24.3C33.3 24.3 33 24.2 32.7 24.1C32.4 24 32.1 23.8 31.9 23.6L30 21.7C29.8 21.5 29.7 21.3 29.6 21C29.5 20.7 29.5 20.5 29.5 20.2C29.5 19.9 29.6 19.7 29.7 19.4C29.8 19.1 30 18.9 30.2 18.7L30.3 18.6C30.1 18.5 29.9 18.5 29.7 18.5C29.5 18.5 29.3 18.5 29.1 18.6C28.9 18.7 28.7 18.8 28.5 18.9C28.3 19 28.2 19.2 28 19.4C27.8 19.6 27.7 19.8 27.6 20C27.5 20.2 27.4 20.4 27.4 20.7C27.4 20.9 27.4 21.2 27.5 21.4C27.6 21.6 27.7 21.8 27.9 22L30 24.1C30.2 24.3 30.4 24.4 30.6 24.5C30.8 24.6 31 24.6 31.3 24.6C31.5 24.6 31.8 24.6 32 24.5C32.2 24.4 32.4 24.3 32.6 24.1L32.7 24C32.9 24.2 33.1 24.3 33.4 24.4C33.7 24.5 33.9 24.5 34.2 24.5C34.5 24.5 34.7 24.4 35 24.3C35.3 24.2 35.5 24 35.7 23.8L35.8 23.7C35.9 24 36 24.4 36 24.9ZM22 26.6C21.6 26.2 21.3 25.7 21.1 25.2C20.9 24.7 20.8 24.1 20.8 23.5C20.8 22.9 20.9 22.4 21.1 21.9C21.3 21.4 21.6 20.9 22 20.5L24.1 18.4C24.5 18 25 17.7 25.5 17.5C26 17.3 26.6 17.2 27.2 17.2C27.8 17.2 28.4 17.3 28.9 17.5C29.4 17.7 29.9 18 30.3 18.4C30.7 18.8 31 19.3 31.2 19.8C31.4 20.3 31.5 20.9 31.5 21.5C31.5 22.1 31.4 22.6 31.2 23.1C31 23.6 30.7 24.1 30.3 24.5L28.4 26.4C28.2 26.6 28 26.8 27.7 26.9C27.4 27 27.1 27.1 26.8 27.1C26.5 27.1 26.2 27 25.9 26.9C25.6 26.8 25.3 26.6 25.1 26.4C24.9 26.2 24.7 25.9 24.6 25.6C24.5 25.3 24.4 25 24.4 24.7C24.4 24.4 24.5 24.1 24.6 23.8C24.7 23.5 24.9 23.2 25.1 23L27 21.1C27.2 20.9 27.3 20.7 27.4 20.4C27.5 20.1 27.5 19.9 27.5 19.6C27.5 19.3 27.4 19.1 27.3 18.8C27.2 18.5 27 18.3 26.8 18.1L26.7 18C26.9 17.9 27.1 17.9 27.3 17.9C27.5 17.9 27.7 17.9 27.9 18C28.1 18.1 28.3 18.2 28.5 18.3C28.7 18.4 28.8 18.6 29 18.8C29.2 19 29.3 19.2 29.4 19.4C29.5 19.6 29.6 19.8 29.6 20.1C29.6 20.3 29.6 20.6 29.5 20.8C29.4 21 29.3 21.2 29.1 21.4L27.2 23.3C27 23.5 26.8 23.6 26.6 23.7C26.4 23.8 26.2 23.8 25.9 23.8C25.7 23.8 25.4 23.8 25.2 23.7C25 23.6 24.8 23.5 24.6 23.3L24.5 23.2C24.3 23 24.2 22.8 24.1 22.5C24 22.2 24 22 24 21.7C24 21.4 24.1 21.2 24.2 20.9C24.3 20.6 24.5 20.4 24.7 20.2L24.8 20.1C24.6 19.8 24.3 19.7 24 19.6C23.7 19.5 23.5 19.5 23.2 19.5C22.9 19.5 22.7 19.6 22.4 19.7C22.1 19.8 21.9 20 21.7 20.2L19.8 22.1C19.6 22.3 19.5 22.5 19.4 22.8C19.3 23.1 19.3 23.3 19.3 23.6C19.3 23.9 19.4 24.1 19.5 24.4C19.6 24.7 19.8 24.9 20 25.1L20.1 25.2C20.3 25.3 20.5 25.3 20.7 25.3C20.9 25.3 21.1 25.3 21.3 25.2C21.5 25.1 21.7 25 21.9 24.9C22.1 24.8 22.2 24.6 22.4 24.4C22.6 24.2 22.7 24 22.8 23.8C22.9 23.6 23 23.4 23 23.1C23 22.9 23 22.6 22.9 22.4C22.8 22.2 22.7 22 22.5 21.8L22.4 21.7C22.6 21.6 22.8 21.6 23 21.6C23.2 21.6 23.4 21.6 23.6 21.7C23.8 21.8 24 21.9 24.2 22C24.4 22.1 24.5 22.3 24.7 22.5C24.9 22.7 25 22.9 25.1 23.1C25.2 23.3 25.3 23.5 25.3 23.8C25.3 24 25.3 24.3 25.2 24.5C25.1 24.7 25 24.9 24.8 25.1L22.7 27.2C22.3 27.6 21.8 27.9 21.3 28.1C20.8 28.3 20.2 28.4 19.6 28.4C19 28.4 18.4 28.3 17.9 28.1C17.4 27.9 16.9 27.6 16.5 27.2C16.1 26.8 15.8 26.3 15.6 25.8C15.4 25.3 15.3 24.7 15.3 24.1C15.3 23.5 15.4 23 15.6 22.5C15.8 22 16.1 21.5 16.5 21.1L18.4 19.2C18.6 19 18.8 18.8 19.1 18.7C19.4 18.6 19.7 18.5 20 18.5C20.3 18.5 20.6 18.6 20.9 18.7C21.2 18.8 21.5 19 21.7 19.2C21.9 19.4 22.1 19.7 22.2 20C22.3 20.3 22.4 20.6 22.4 20.9C22.4 21.2 22.3 21.5 22.2 21.8C22.1 22.1 21.9 22.4 21.7 22.6L19.8 24.5C19.6 24.7 19.5 24.9 19.4 25.2C19.3 25.5 19.3 25.7 19.3 26C19.3 26.3 19.4 26.5 19.5 26.8C19.6 27.1 19.8 27.3 20 27.5L20.1 27.6C19.9 27.7 19.7 27.7 19.5 27.7C19.3 27.7 19.1 27.7 18.9 27.6C18.7 27.5 18.5 27.4 18.3 27.3C18.1 27.2 18 27 17.8 26.8C17.6 26.6 17.5 26.4 17.4 26.2C17.3 26 17.2 25.8 17.2 25.5C17.2 25.3 17.2 25 17.3 24.8C17.4 24.6 17.5 24.4 17.7 24.2L19.6 22.3C19.8 22.1 20 22 20.2 21.9C20.4 21.8 20.6 21.8 20.9 21.8C21.1 21.8 21.4 21.8 21.6 21.9C21.8 22 22 22.1 22.2 22.3L22.3 22.4C22.5 22.6 22.6 22.8 22.7 23.1C22.8 23.4 22.8 23.6 22.8 23.9C22.8 24.2 22.7 24.4 22.6 24.7C22.5 25 22.3 25.2 22.1 25.4L22 26.6Z" fill="url(#paint1_linear)"/>
  <defs>
    <linearGradient id="paint0_linear" x1="0" y1="0" x2="48" y2="48" gradientUnits="userSpaceOnUse">
      <stop stop-color="#A855F7"/>
      <stop offset="1" stop-color="#8B5CF6"/>
    </linearGradient>
    <linearGradient id="paint1_linear" x1="15.3" y1="17.2" x2="36" y2="28.4" gradientUnits="userSpaceOnUse">
      <stop stop-color="#A855F7"/>
      <stop offset="1" stop-color="#8B5CF6"/>
    </linearGradient>
  </defs>
</svg> 