<svg width="48" height="48" viewBox="0 0 48 48" fill="none" xmlns="http://www.w3.org/2000/svg">
  <rect width="48" height="48" rx="24" fill="url(#paint0_linear)" fill-opacity="0.1"/>
  <path d="M34 16H14C12.9 16 12 16.9 12 18V34C12 35.1 12.9 36 14 36H34C35.1 36 36 35.1 36 34V18C36 16.9 35.1 16 34 16ZM34 34H14V22H34V34ZM34 20H14V18H34V20ZM20 26H28C28.55 26 29 25.55 29 25C29 24.45 28.55 24 28 24H20C19.45 24 19 24.45 19 25C19 25.55 19.45 26 20 26ZM20 30H28C28.55 30 29 29.55 29 29C29 28.45 28.55 28 28 28H20C19.45 28 19 28.45 19 29C19 29.55 19.45 30 20 30Z" fill="url(#paint1_linear)"/>
  <defs>
    <linearGradient id="paint0_linear" x1="0" y1="0" x2="48" y2="48" gradientUnits="userSpaceOnUse">
      <stop stop-color="#22C55E"/>
      <stop offset="1" stop-color="#16A34A"/>
    </linearGradient>
    <linearGradient id="paint1_linear" x1="12" y1="16" x2="36" y2="36" gradientUnits="userSpaceOnUse">
      <stop stop-color="#22C55E"/>
      <stop offset="1" stop-color="#16A34A"/>
    </linearGradient>
  </defs>
</svg> 