<svg width="409" height="228" viewBox="0 0 409 228" fill="none" xmlns="http://www.w3.org/2000/svg">
<path d="M183.793 138.7C184.952 138.681 185.845 138.662 186.472 138.662C188.22 138.662 189.474 139.042 190.253 139.821C191.013 140.6 191.393 141.588 191.393 142.785C191.393 143.944 190.975 144.932 190.158 145.749C189.322 146.566 188.144 146.965 186.605 146.965C185.864 146.965 185.199 146.946 184.61 146.889V151.335C184.61 151.772 184.249 152.133 183.812 152.133C183.356 152.133 182.995 151.772 182.995 151.335V139.498C182.995 139.061 183.356 138.7 183.793 138.7ZM184.61 140.22V145.35C185.332 145.407 185.978 145.445 186.548 145.445C188.505 145.445 189.683 144.438 189.683 142.766C189.683 141.151 188.676 140.182 186.624 140.182C186.111 140.182 185.446 140.201 184.61 140.22ZM192.02 150.917C191.165 150.081 190.747 149.017 190.747 147.725C190.747 146.433 191.165 145.369 192.02 144.514C192.856 143.678 193.958 143.26 195.307 143.26C196.656 143.26 197.758 143.678 198.613 144.514C199.449 145.369 199.867 146.433 199.867 147.725C199.867 149.017 199.449 150.081 198.613 150.917C197.758 151.772 196.656 152.19 195.307 152.19C193.958 152.19 192.856 151.772 192.02 150.917ZM192.362 147.725C192.362 149.492 193.578 150.765 195.307 150.765C197.036 150.765 198.252 149.53 198.252 147.725C198.252 145.958 197.036 144.685 195.307 144.685C193.616 144.685 192.362 145.92 192.362 147.725ZM206.719 144.001L208.486 148.827C208.505 148.884 208.638 149.302 208.885 150.062C208.98 149.625 209.094 149.188 209.227 148.751L210.633 143.925C210.747 143.545 210.994 143.355 211.355 143.355C211.811 143.355 212.096 143.659 212.096 144.039C212.096 144.096 212.077 144.172 212.058 144.267L209.759 151.525C209.626 151.924 209.36 152.133 208.923 152.133C208.486 152.133 208.182 151.943 208.049 151.544L206.13 146.509C206.035 146.262 205.921 145.901 205.807 145.464C205.674 145.977 205.541 146.338 205.446 146.566L203.584 151.525C203.432 151.924 203.147 152.133 202.748 152.133C202.349 152.133 202.083 151.924 201.95 151.525L199.575 144.343C199.556 144.248 199.537 144.153 199.537 144.096C199.537 143.697 199.879 143.355 200.316 143.355C200.696 143.355 200.943 143.545 201.057 143.906L202.596 148.846C202.691 149.15 202.862 149.834 202.919 150.043C203.147 149.264 203.261 148.865 203.28 148.846L205.028 144.001C205.18 143.564 205.465 143.355 205.883 143.355C206.282 143.355 206.567 143.564 206.719 144.001ZM213.378 146.965H218.565C218.489 145.54 217.558 144.685 216.095 144.685C214.575 144.685 213.549 145.616 213.378 146.965ZM220.142 147.174C220.142 147.364 220.142 147.497 220.123 147.592C220.104 147.896 219.781 148.2 219.477 148.2H213.473C213.606 149.796 214.765 150.765 216.456 150.765C217.254 150.765 217.957 150.594 218.546 150.252C218.679 150.176 218.831 150.138 218.964 150.138C219.154 150.138 219.325 150.214 219.477 150.385C219.553 150.48 219.591 150.594 219.591 150.727C219.591 150.974 219.515 151.145 219.363 151.24C218.47 151.867 217.463 152.19 216.342 152.19C214.955 152.19 213.853 151.791 213.017 150.974C212.181 150.157 211.763 149.074 211.763 147.725C211.763 146.433 212.162 145.369 212.941 144.514C213.72 143.678 214.803 143.26 216.171 143.26C217.292 143.26 218.242 143.621 219.002 144.343C219.762 145.084 220.142 146.015 220.142 147.174ZM222.506 145.939V151.373C222.544 152.361 220.948 152.361 220.986 151.373V144.115C220.948 143.127 222.544 143.127 222.506 144.115V144.457C223.019 143.678 223.741 143.298 224.653 143.298C224.862 143.298 225.128 143.336 225.432 143.412C225.793 143.526 225.983 143.735 225.983 144.02C225.983 144.058 225.964 144.134 225.945 144.267C225.85 144.628 225.584 144.799 225.185 144.799C225.109 144.799 224.976 144.78 224.805 144.761C224.691 144.742 224.52 144.723 224.292 144.723C223.513 144.723 222.924 145.122 222.506 145.939ZM227.158 146.965H232.345C232.269 145.54 231.338 144.685 229.875 144.685C228.355 144.685 227.329 145.616 227.158 146.965ZM233.922 147.174C233.922 147.364 233.922 147.497 233.903 147.592C233.884 147.896 233.561 148.2 233.257 148.2H227.253C227.386 149.796 228.545 150.765 230.236 150.765C231.034 150.765 231.737 150.594 232.326 150.252C232.459 150.176 232.611 150.138 232.744 150.138C232.934 150.138 233.105 150.214 233.257 150.385C233.333 150.48 233.371 150.594 233.371 150.727C233.371 150.974 233.295 151.145 233.143 151.24C232.25 151.867 231.243 152.19 230.122 152.19C228.735 152.19 227.633 151.791 226.797 150.974C225.961 150.157 225.543 149.074 225.543 147.725C225.543 146.433 225.942 145.369 226.721 144.514C227.5 143.678 228.583 143.26 229.951 143.26C231.072 143.26 232.022 143.621 232.782 144.343C233.542 145.084 233.922 146.015 233.922 147.174ZM242.555 139.422V151.411C242.631 152.342 240.959 152.342 241.035 151.411V150.917C240.275 151.734 239.363 152.152 238.318 152.152C237.064 152.152 236.057 151.753 235.316 150.955C234.575 150.157 234.195 149.093 234.195 147.782C234.195 146.452 234.632 145.369 235.525 144.514C236.399 143.678 237.52 143.26 238.869 143.26C239.743 143.26 240.465 143.469 241.035 143.868V139.422C240.959 138.491 242.631 138.491 242.555 139.422ZM241.035 149.587V145.35C240.332 144.913 239.629 144.685 238.926 144.685C238.052 144.685 237.311 144.97 236.722 145.521C236.114 146.091 235.81 146.832 235.81 147.744C235.81 149.587 236.95 150.727 238.603 150.727C239.534 150.727 240.351 150.347 241.035 149.587ZM248.413 139.422V144.267C249.04 143.678 250.085 143.26 251.073 143.26C252.327 143.26 253.315 143.659 254.056 144.457C254.778 145.255 255.139 146.3 255.139 147.592C255.139 148.998 254.702 150.119 253.847 150.936C252.992 151.772 251.833 152.19 250.389 152.19C249.249 152.19 248.223 151.943 247.33 151.468C247.102 151.335 246.893 150.993 246.893 150.746V139.422C246.817 138.491 248.489 138.491 248.413 139.422ZM248.413 145.787V150.176C249.002 150.575 249.686 150.765 250.465 150.765C252.232 150.765 253.524 149.587 253.524 147.706C253.524 145.806 252.403 144.685 250.731 144.685C249.8 144.685 248.869 145.198 248.413 145.787ZM256.303 143.83L258.64 148.884C258.659 148.941 258.83 149.378 259.153 150.176C259.267 149.758 259.4 149.321 259.552 148.865L261.357 143.944C261.49 143.545 261.737 143.355 262.098 143.355C262.63 143.355 262.934 143.659 262.934 144.096C262.934 144.191 262.915 144.305 262.858 144.457L259.837 152C259.248 153.482 258.716 154.489 258.241 155.021C257.766 155.534 257.196 155.8 256.569 155.8C255.562 155.8 255.049 155.496 255.049 154.907C255.049 154.508 255.258 154.299 255.657 154.299C255.79 154.299 256.17 154.394 256.398 154.394C257.101 154.394 257.633 153.824 258.222 152.456L258.412 152L254.821 144.514C254.764 144.419 254.745 144.286 254.745 144.153C254.745 143.716 255.068 143.355 255.581 143.355C255.904 143.355 256.151 143.507 256.303 143.83ZM276.027 151.601L274.488 147.972H268.427L266.907 151.601C266.774 151.962 266.527 152.133 266.185 152.133C265.71 152.133 265.425 151.791 265.425 151.392C265.425 151.316 265.444 151.202 265.501 151.05L270.593 139.251C270.783 138.814 271.087 138.605 271.524 138.605C271.961 138.605 272.265 138.814 272.436 139.251L277.509 150.993C277.547 151.107 277.566 151.221 277.566 151.316C277.566 151.753 277.262 152.133 276.787 152.133C276.426 152.133 276.179 151.962 276.027 151.601ZM269.073 146.452H273.861L271.467 140.771L269.073 146.452ZM284.018 149.492V144.077C283.942 143.146 285.614 143.146 285.538 144.077V151.411C285.614 152.342 283.942 152.342 284.018 151.411V150.784C283.353 151.563 282.27 152.19 280.997 152.19C279.021 152.19 277.843 150.974 277.843 148.542V144.077C277.767 143.146 279.439 143.146 279.363 144.077V148.2C279.363 149.91 280.104 150.765 281.567 150.765C282.498 150.765 283.467 150.233 284.018 149.492ZM289.814 150.727C290.175 150.727 290.878 150.499 291.03 150.499C291.391 150.499 291.676 150.746 291.676 151.126C291.676 151.373 291.543 151.563 291.277 151.734C290.821 152.019 290.213 152.152 289.453 152.152C287.572 152.152 286.774 151.012 286.774 148.751V141.797C286.698 140.866 288.37 140.866 288.294 141.797V143.45H290.707C291.106 143.45 291.429 143.773 291.429 144.153C291.429 144.552 291.106 144.875 290.707 144.875H288.294V148.599C288.294 150.024 288.807 150.727 289.814 150.727ZM292.534 150.917C291.679 150.081 291.261 149.017 291.261 147.725C291.261 146.433 291.679 145.369 292.534 144.514C293.37 143.678 294.472 143.26 295.821 143.26C297.17 143.26 298.272 143.678 299.127 144.514C299.963 145.369 300.381 146.433 300.381 147.725C300.381 149.017 299.963 150.081 299.127 150.917C298.272 151.772 297.17 152.19 295.821 152.19C294.472 152.19 293.37 151.772 292.534 150.917ZM292.876 147.725C292.876 149.492 294.092 150.765 295.821 150.765C297.55 150.765 298.766 149.53 298.766 147.725C298.766 145.958 297.55 144.685 295.821 144.685C294.13 144.685 292.876 145.92 292.876 147.725ZM302.746 144.077V144.533C303.373 143.792 304.494 143.298 305.577 143.298C306.888 143.298 307.838 143.868 308.161 144.78C308.788 143.887 309.89 143.298 311.163 143.298C313.006 143.298 313.918 144.324 313.918 146.395V151.411C313.994 152.342 312.322 152.342 312.398 151.411V146.813C312.398 145.426 311.79 144.723 310.555 144.723C309.567 144.723 308.712 145.217 308.313 145.958C308.332 146.053 308.332 146.262 308.332 146.566V151.411C308.408 152.342 306.736 152.342 306.812 151.411V146.49C306.812 145.426 306.147 144.723 304.988 144.723C304.038 144.723 303.297 145.103 302.746 145.882V151.411C302.822 152.342 301.15 152.342 301.226 151.411V144.077C301.15 143.146 302.822 143.146 302.746 144.077ZM316.018 150.917C315.163 150.081 314.745 149.017 314.745 147.725C314.745 146.433 315.163 145.369 316.018 144.514C316.854 143.678 317.956 143.26 319.305 143.26C320.654 143.26 321.756 143.678 322.611 144.514C323.447 145.369 323.865 146.433 323.865 147.725C323.865 149.017 323.447 150.081 322.611 150.917C321.756 151.772 320.654 152.19 319.305 152.19C317.956 152.19 316.854 151.772 316.018 150.917ZM316.36 147.725C316.36 149.492 317.576 150.765 319.305 150.765C321.034 150.765 322.25 149.53 322.25 147.725C322.25 145.958 321.034 144.685 319.305 144.685C317.614 144.685 316.36 145.92 316.36 147.725ZM327.559 150.727C327.92 150.727 328.623 150.499 328.775 150.499C329.136 150.499 329.421 150.746 329.421 151.126C329.421 151.373 329.288 151.563 329.022 151.734C328.566 152.019 327.958 152.152 327.198 152.152C325.317 152.152 324.519 151.012 324.519 148.751V141.797C324.443 140.866 326.115 140.866 326.039 141.797V143.45H328.452C328.851 143.45 329.174 143.773 329.174 144.153C329.174 144.552 328.851 144.875 328.452 144.875H326.039V148.599C326.039 150.024 326.552 150.727 327.559 150.727ZM331.848 144.077V151.411C331.924 152.342 330.252 152.342 330.328 151.411V144.077C330.252 143.146 331.924 143.146 331.848 144.077ZM330.138 140.239C330.138 139.707 330.575 139.327 331.126 139.327C331.639 139.327 332.057 139.707 332.057 140.239C332.057 140.847 331.639 141.227 331.126 141.227C330.575 141.227 330.138 140.847 330.138 140.239ZM334.215 143.83L336.115 148.067C336.343 148.58 336.59 149.226 336.837 149.967C337.046 149.264 337.293 148.618 337.54 148.029L339.326 143.83C339.459 143.507 339.687 143.355 340.048 143.355C340.447 143.355 340.77 143.678 340.77 144.058C340.77 144.153 340.751 144.248 340.713 144.343L337.54 151.601C337.388 151.962 337.141 152.133 336.78 152.133C336.438 152.133 336.191 151.962 336.02 151.601L332.733 144.495C332.676 144.4 332.657 144.286 332.657 144.172C332.657 143.716 333.018 143.355 333.493 143.355C333.816 143.355 334.063 143.507 334.215 143.83ZM341.877 146.965H347.064C346.988 145.54 346.057 144.685 344.594 144.685C343.074 144.685 342.048 145.616 341.877 146.965ZM348.641 147.174C348.641 147.364 348.641 147.497 348.622 147.592C348.603 147.896 348.28 148.2 347.976 148.2H341.972C342.105 149.796 343.264 150.765 344.955 150.765C345.753 150.765 346.456 150.594 347.045 150.252C347.178 150.176 347.33 150.138 347.463 150.138C347.653 150.138 347.824 150.214 347.976 150.385C348.052 150.48 348.09 150.594 348.09 150.727C348.09 150.974 348.014 151.145 347.862 151.24C346.969 151.867 345.962 152.19 344.841 152.19C343.454 152.19 342.352 151.791 341.516 150.974C340.68 150.157 340.262 149.074 340.262 147.725C340.262 146.433 340.661 145.369 341.44 144.514C342.219 143.678 343.302 143.26 344.67 143.26C345.791 143.26 346.741 143.621 347.501 144.343C348.261 145.084 348.641 146.015 348.641 147.174ZM362.093 151.601L360.554 147.972H354.493L352.973 151.601C352.84 151.962 352.593 152.133 352.251 152.133C351.776 152.133 351.491 151.791 351.491 151.392C351.491 151.316 351.51 151.202 351.567 151.05L356.659 139.251C356.849 138.814 357.153 138.605 357.59 138.605C358.027 138.605 358.331 138.814 358.502 139.251L363.575 150.993C363.613 151.107 363.632 151.221 363.632 151.316C363.632 151.753 363.328 152.133 362.853 152.133C362.492 152.133 362.245 151.962 362.093 151.601ZM355.139 146.452H359.927L357.533 140.771L355.139 146.452ZM365.106 151.335V139.384C365.106 138.947 365.467 138.605 365.923 138.605C366.36 138.605 366.721 138.947 366.721 139.384V151.335C366.721 151.772 366.36 152.133 365.923 152.133C365.467 152.133 365.106 151.772 365.106 151.335Z" fill="black"/>
<path d="M163.795 78H152.927V88.5948H163.795V78Z" fill="black"/>
<path d="M136.849 97.2539L163.658 146.225H106.108C108.769 142.004 111.555 138.209 114.215 133.989C123.417 134.055 132.497 133.7 141.698 133.766C137.396 125.816 133.089 117.861 128.788 109.911C131.473 105.69 134.164 101.475 136.849 97.2539Z" fill="black"/>
<path d="M95.1749 146.301L130.729 89.6639C128.935 85.7776 127.137 81.8914 125.343 78C110.816 100.74 96.2845 123.485 81.7578 146.225L95.1749 146.296V146.301Z" fill="black"/>
<path d="M163.795 92.7246H152.927V146.297H163.795V92.7246Z" fill="black"/>
<path d="M113.204 97.3301L140.311 146.149L82.4629 146.301C85.123 142.081 87.7831 137.86 90.4432 133.639C99.6446 133.705 108.851 133.776 118.053 133.842C113.751 125.892 109.444 117.937 105.142 109.987C107.828 105.766 110.518 101.551 113.204 97.3301Z" fill="black"/>
<path d="M73.4171 146.301L108.971 89.6639C107.178 85.7776 105.379 81.8914 103.585 78C89.0585 100.74 74.5267 123.485 60 146.225L73.4171 146.296V146.301Z" fill="black"/>
<path d="M175.287 44.3945L189.127 30.8642C183.884 25.8539 176.063 19.369 165.473 13.6171C160.885 11.1249 147.89 4.49341 129.78 1.50966C86.1192 -5.66512 52.2201 14.9193 48.1929 17.5753C39.647 23.2237 30.1611 31.166 30.1611 31.166C31.3943 32.4337 32.6188 33.7013 33.852 34.969C32.0496 36.6678 29.6092 39.0824 26.8841 42.1265C23.4261 46.0071 15.4838 55.0446 9.27488 68.3938C7.3432 72.5504 0.815183 87.3225 0.0649353 107.821C-0.116159 112.779 -0.280007 126.741 4.91999 143.669C10.2666 161.08 19.0626 174.394 24.2798 180.44C25.0473 181.328 32.5412 189.943 32.5412 189.943L28.6175 194.591C35.5594 200.895 46.0284 209.096 60.24 215.96C65.8626 218.676 74.3826 222.729 86.3607 225.265C89.7411 225.98 105.721 229.188 126.339 225.886C131.117 225.118 143.543 222.833 157.945 216.072C162.601 213.89 170.526 210.113 178.969 203.516C179.366 203.206 179.771 202.878 190.171 194.384L177.158 180.957C172.881 185.079 166.818 190.227 158.876 195.108C154.383 197.868 145.535 203.214 132.919 206.629C115.465 211.355 100.684 209.708 93.6993 208.535C90.0947 207.931 70.6917 203.706 54.8589 192.314C46.3906 186.217 41.3286 181.362 41.3286 181.362L38.6467 184.769C33.0931 179.327 25.306 170.436 19.0195 157.708C16.1392 151.878 12.0172 142.108 9.96476 129.354C9.96476 129.354 5.63574 102.319 16.5187 74.3527C17.8639 70.8947 20.589 63.9958 25.7286 56.3468C30.0059 49.9826 34.7574 44.8688 36.4649 43.0406C37.4394 41.9972 38.2758 41.1435 38.8622 40.5484C40.1299 41.7988 41.3889 43.0493 42.6566 44.291C48.2964 38.7979 57.3856 31.2609 70.2347 25.3883C85.7743 18.2911 99.0373 17.1873 102.53 16.9544C118.078 15.9024 129.763 19.231 135.929 21.0506C142.284 22.9219 153.366 26.3023 165.025 35.1329C169.518 38.5392 172.924 41.8678 175.287 44.3945Z" fill="#E52325"/>
<path d="M91.9145 24.4224C91.7938 27.6044 91.6817 30.7952 91.561 33.9772C85.9729 34.9258 77.7892 36.961 68.9069 41.7126C55.5318 48.8787 47.9086 58.3991 43.4416 64.0648C40.3285 68.0144 36.4307 73.0419 33.1882 80.6737C29.5749 89.1679 28.5832 96.6359 28.1779 99.7317C27.6174 103.931 27.4881 107.838 27.4708 108.648C27.2552 118.617 28.4366 126.482 29.6094 132.76C31.7912 144.445 37.431 153.284 39.8283 157.027C47.2273 168.565 55.7646 175.05 60.9991 178.948C66.2509 182.863 73.762 188.356 84.964 191.728C93.3719 194.263 100.969 194.729 102.634 194.815C107.54 195.074 113.844 194.832 117.147 194.815C119.665 194.798 123.477 194.573 123.477 194.573V203.878C121.726 203.921 119.984 203.964 118.234 204.016C113.249 204.473 106.833 204.663 99.4515 203.878C90.2329 202.904 83.3945 200.946 81.2989 200.144C75.7281 198.006 68.6396 195.488 62.767 191.754C56.8943 188.02 50.03 183.285 45.5285 178.637C44.166 177.223 38.4227 171.505 32.7915 162.468C30.0492 158.07 25.6167 150.145 22.4088 139.366C21.305 135.657 18.8818 126.706 18.4592 114.875C18.2954 110.365 18.0798 103.052 19.9856 93.6694C20.7617 89.8578 22.7968 81.1739 28.0658 71.1706C29.368 68.6956 33.7229 60.7275 41.7169 52.1039C43.9763 49.6721 52.5567 40.6519 66.1215 33.1925C74.1242 28.7859 79.3759 27.018 81.9802 26.3023C85.9643 25.1985 89.4137 24.6897 91.9145 24.431V24.4224Z" fill="#E52325"/>
<path d="M141.897 168.643L144.889 173.774C143.397 174.67 141.164 175.938 138.353 177.214C115.733 187.494 93.6482 181.509 90.3885 180.578C72.6327 175.49 61.4824 164.65 56.2652 158.605C46.5723 147.368 43.0712 136.115 42.2088 133.148C42.2088 133.148 38.63 120.834 39.7856 108.657C40.2599 103.647 41.105 99.2489 41.1136 99.223C41.5534 97.093 41.8984 95.5925 42.1485 94.6181C40.8118 94.3421 39.4665 94.0662 38.1299 93.7902C38.6645 91.8672 39.501 89.168 40.7601 86.0376C45.5375 74.1372 52.3673 65.962 56.5929 61.5554C59.6542 58.3647 64.9663 52.9146 73.5295 48.2924C75.7716 47.0765 82.0927 43.7306 89.9142 42.2559C93.9156 41.4971 98.1411 41.247 99.219 41.1866C101.625 41.0573 103.686 41.0573 105.23 41.0918V53.7511C101.737 53.6304 96.5199 53.8287 90.5265 55.5879C83.3 57.7093 78.4794 61.0639 75.5561 63.1249C73.9176 64.2805 68.9763 67.911 63.9833 74.0078C62.4051 75.9395 59.4731 79.57 56.843 84.9425C56.2479 86.167 55.8685 86.9776 52.0914 96.8085L47.0552 95.7219C46.831 96.5411 46.5292 97.6967 46.236 99.1023C45.9256 100.551 44.9166 105.544 44.8821 112.279C44.8476 117.859 45.4944 122.136 45.7703 123.826C46.6758 129.302 48.0556 133.295 48.3488 134.148C51.7637 143.91 57.1534 150.404 60.6891 154.595C64.173 158.725 67.0532 161.451 67.9846 162.097C70.3647 163.753 75.0818 167.703 77.9016 169.238C80.7215 170.773 86.0078 173.67 89.026 174.394C92.0529 175.119 96.4854 176.292 99.952 176.568C103.419 176.852 111.965 177.128 115.276 176.973C118.579 176.809 126.28 175.524 128.703 174.8C132.859 173.549 135.403 172.463 136.688 171.816C138.887 170.704 140.638 169.557 141.888 168.651L141.897 168.643Z" fill="#050505"/>
<path d="M188.7 89.48V97.705C188.7 98.405 188.105 99 187.405 99H185.69C184.99 99 184.395 98.405 184.395 97.705V75.795C184.395 75.095 184.99 74.5 185.69 74.5H197.1C197.8 74.5 198.395 75.095 198.395 75.795V77.23C198.395 77.93 197.8 78.525 197.1 78.525H188.7V85.455H196.05C196.75 85.455 197.345 86.05 197.345 86.75V88.185C197.345 88.885 196.75 89.48 196.05 89.48H188.7ZM216.284 87.975V75.795C216.284 75.095 216.879 74.5 217.579 74.5H219.259C219.959 74.5 220.554 75.095 220.554 75.795V88.85C220.554 96.34 215.969 99.385 210.824 99.385C204.734 99.385 200.394 95.78 200.394 88.605V75.795C200.394 75.095 200.989 74.5 201.689 74.5H203.404C204.104 74.5 204.699 75.095 204.699 75.795V87.695C204.699 92.28 206.589 95.36 210.824 95.36C214.534 95.36 216.284 92.735 216.284 87.975ZM239.874 96.27V97.705C239.874 98.405 239.279 99 238.579 99H225.839C225.139 99 224.544 98.405 224.544 97.705V75.795C224.544 75.095 225.139 74.5 225.839 74.5H227.554C228.254 74.5 228.849 75.095 228.849 75.795V94.975H238.579C239.279 94.975 239.874 95.57 239.874 96.27ZM256.564 96.27V97.705C256.564 98.405 255.969 99 255.269 99H242.529C241.829 99 241.234 98.405 241.234 97.705V75.795C241.234 75.095 241.829 74.5 242.529 74.5H244.244C244.944 74.5 245.539 75.095 245.539 75.795V94.975H255.269C255.969 94.975 256.564 95.57 256.564 96.27ZM277.532 79.33C276.167 78.63 274.802 78.14 273.192 78.14C268.642 78.14 265.212 81.43 265.212 86.75C265.212 91.86 268.677 95.36 273.682 95.36C275.327 95.36 276.692 94.905 278.092 94.135C278.372 93.995 278.652 93.925 278.897 93.925C279.352 93.925 279.772 94.1 280.017 94.52L280.647 95.5C280.822 95.745 280.892 96.025 280.892 96.305C280.892 96.69 280.717 97.075 280.402 97.285C277.812 99 275.502 99.385 273.297 99.385C265.807 99.385 260.662 94.38 260.662 86.75C260.662 79.715 265.107 74.115 273.192 74.115C275.362 74.115 277.777 74.85 279.597 75.865C280.017 76.075 280.297 76.425 280.297 76.88C280.297 77.09 280.227 77.335 280.087 77.58L279.352 78.875C279.072 79.33 278.722 79.54 278.302 79.54C278.057 79.54 277.777 79.47 277.532 79.33ZM287.626 75.795V97.705C287.626 98.405 287.031 99 286.331 99H284.616C283.916 99 283.321 98.405 283.321 97.705V75.795C283.321 75.095 283.916 74.5 284.616 74.5H286.331C287.031 74.5 287.626 75.095 287.626 75.795ZM305.919 98.125L299.794 89.83H296.784V97.705C296.784 98.405 296.189 99 295.489 99H293.774C293.074 99 292.479 98.405 292.479 97.705V75.795C292.479 75.095 293.039 74.5 293.774 74.5C295.874 74.465 299.374 74.43 299.934 74.43C306.619 74.43 308.824 77.755 308.824 81.99C308.824 86.19 306.129 88.29 304.099 88.99L310.189 96.97C310.399 97.215 310.469 97.495 310.469 97.74C310.469 98.405 309.944 99 309.209 99H307.599C306.969 99 306.304 98.65 305.919 98.125ZM296.784 85.805H299.584C302.069 85.805 304.274 84.545 304.274 82.025C304.274 80.1 303.224 78.455 299.724 78.455C298.919 78.455 297.939 78.49 296.784 78.525V85.805ZM326.818 79.33C325.453 78.63 324.088 78.14 322.478 78.14C317.928 78.14 314.498 81.43 314.498 86.75C314.498 91.86 317.963 95.36 322.968 95.36C324.613 95.36 325.978 94.905 327.378 94.135C327.658 93.995 327.938 93.925 328.183 93.925C328.638 93.925 329.058 94.1 329.303 94.52L329.933 95.5C330.108 95.745 330.178 96.025 330.178 96.305C330.178 96.69 330.003 97.075 329.688 97.285C327.098 99 324.788 99.385 322.583 99.385C315.093 99.385 309.948 94.38 309.948 86.75C309.948 79.715 314.393 74.115 322.478 74.115C324.648 74.115 327.063 74.85 328.883 75.865C329.303 76.075 329.583 76.425 329.583 76.88C329.583 77.09 329.513 77.335 329.373 77.58L328.638 78.875C328.358 79.33 328.008 79.54 327.588 79.54C327.343 79.54 327.063 79.47 326.818 79.33ZM347.411 96.27V97.705C347.411 98.405 346.816 99 346.116 99H333.376C332.676 99 332.081 98.405 332.081 97.705V75.795C332.081 75.095 332.676 74.5 333.376 74.5H335.091C335.791 74.5 336.386 75.095 336.386 75.795V94.975H346.116C346.816 94.975 347.411 95.57 347.411 96.27ZM363.297 96.27V97.705C363.297 98.405 362.702 99 362.002 99H350.067C349.367 99 348.772 98.405 348.772 97.705V75.795C348.772 75.095 349.367 74.5 350.067 74.5H361.652C362.352 74.5 362.947 75.095 362.947 75.795V77.23C362.947 77.93 362.352 78.525 361.652 78.525H353.077V84.615H360.602C361.302 84.615 361.897 85.21 361.897 85.91V87.345C361.897 88.045 361.302 88.64 360.602 88.64H353.077V94.975H362.002C362.702 94.975 363.297 95.57 363.297 96.27Z" fill="black"/>
<path d="M198.465 126.735H188L185.83 132.02C185.62 132.615 185.025 133 184.395 133H183.135C182.33 133 181.77 132.37 181.77 131.635C181.77 131.495 181.805 131.32 181.875 131.145L191.045 109.41C191.29 108.815 191.885 108.43 192.515 108.43H194.195C194.825 108.43 195.42 108.815 195.665 109.41L204.835 131.145C204.905 131.32 204.94 131.495 204.94 131.635C204.94 132.37 204.38 133 203.575 133H202.07C201.44 133 200.845 132.615 200.635 132.02L198.465 126.735ZM193.25 113.995L189.645 122.71H196.82L193.25 113.995ZM211.487 109.795V131.705C211.487 132.405 210.892 133 210.192 133H208.477C207.777 133 207.182 132.405 207.182 131.705V109.795C207.182 109.095 207.777 108.5 208.477 108.5H210.192C210.892 108.5 211.487 109.095 211.487 109.795ZM219.803 128.625L220.958 127.4C221.238 127.12 221.518 127.015 221.833 127.015C222.183 127.015 222.533 127.155 222.813 127.4C224.388 128.695 225.893 129.36 227.258 129.36C229.288 129.36 230.828 128.345 230.828 126.49C230.828 121.66 219.733 122.85 219.733 114.87C219.733 111.195 222.603 108.115 227.363 108.115C229.603 108.115 231.353 108.57 233.208 109.62C233.593 109.83 233.838 110.285 233.838 110.74C233.838 110.95 233.768 111.16 233.663 111.335L232.998 112.49C232.718 112.945 232.298 113.19 231.843 113.19C231.633 113.19 231.423 113.155 231.213 113.05C229.918 112.42 228.763 112.14 227.713 112.14C225.578 112.14 224.283 113.225 224.283 114.835C224.283 119.91 235.378 118.3 235.378 126.455C235.378 130.585 231.773 133.385 227.188 133.385C224.528 133.385 222.358 132.65 219.943 130.41C219.663 130.165 219.488 129.78 219.488 129.395C219.488 129.115 219.593 128.835 219.803 128.625ZM236.076 120.75C236.076 113.645 241.291 108.115 248.816 108.115C256.096 108.115 261.591 113.12 261.591 120.75C261.591 128.1 256.096 133.385 248.816 133.385C241.536 133.385 236.076 128.38 236.076 120.75ZM240.626 120.75C240.626 125.65 244.231 129.36 248.816 129.36C253.961 129.36 257.041 125.58 257.041 120.75C257.041 115.675 253.436 112.14 248.816 112.14C244.126 112.14 240.626 115.675 240.626 120.75ZM279.453 130.27V131.705C279.453 132.405 278.858 133 278.158 133H265.418C264.718 133 264.123 132.405 264.123 131.705V109.795C264.123 109.095 264.718 108.5 265.418 108.5H267.133C267.833 108.5 268.428 109.095 268.428 109.795V128.975H278.158C278.858 128.975 279.453 129.57 279.453 130.27ZM296.353 121.975V109.795C296.353 109.095 296.948 108.5 297.648 108.5H299.328C300.028 108.5 300.623 109.095 300.623 109.795V122.85C300.623 130.34 296.038 133.385 290.893 133.385C284.803 133.385 280.463 129.78 280.463 122.605V109.795C280.463 109.095 281.058 108.5 281.758 108.5H283.473C284.173 108.5 284.768 109.095 284.768 109.795V121.695C284.768 126.28 286.658 129.36 290.893 129.36C294.603 129.36 296.353 126.735 296.353 121.975ZM312.523 133H310.808C310.108 133 309.513 132.405 309.513 131.705V112.525H302.863C302.163 112.525 301.568 111.93 301.568 111.23V109.795C301.568 109.095 302.163 108.5 302.863 108.5H320.468C321.168 108.5 321.763 109.095 321.763 109.795V111.23C321.763 111.93 321.168 112.525 320.468 112.525H313.818V131.705C313.818 132.405 313.223 133 312.523 133ZM327.877 109.795V131.705C327.877 132.405 327.282 133 326.582 133H324.867C324.167 133 323.572 132.405 323.572 131.705V109.795C323.572 109.095 324.167 108.5 324.867 108.5H326.582C327.282 108.5 327.877 109.095 327.877 109.795ZM330.911 120.75C330.911 113.645 336.126 108.115 343.651 108.115C350.931 108.115 356.426 113.12 356.426 120.75C356.426 128.1 350.931 133.385 343.651 133.385C336.371 133.385 330.911 128.38 330.911 120.75ZM335.461 120.75C335.461 125.65 339.066 129.36 343.651 129.36C348.796 129.36 351.876 125.58 351.876 120.75C351.876 115.675 348.271 112.14 343.651 112.14C338.961 112.14 335.461 115.675 335.461 120.75ZM377.158 108.5H378.593C379.293 108.5 379.888 109.095 379.888 109.795V131.705C379.888 132.405 379.293 133 378.593 133H377.368C376.738 133 376.213 132.685 375.793 132.16L362.983 116.025V131.705C362.983 132.405 362.388 133 361.688 133H360.253C359.553 133 358.958 132.405 358.958 131.705V109.795C358.958 109.095 359.553 108.5 360.253 108.5H361.478C362.108 108.5 362.633 108.815 363.053 109.34L375.863 125.545V109.795C375.863 109.095 376.458 108.5 377.158 108.5ZM382.722 128.625L383.877 127.4C384.157 127.12 384.437 127.015 384.752 127.015C385.102 127.015 385.452 127.155 385.732 127.4C387.307 128.695 388.812 129.36 390.177 129.36C392.207 129.36 393.747 128.345 393.747 126.49C393.747 121.66 382.652 122.85 382.652 114.87C382.652 111.195 385.522 108.115 390.282 108.115C392.522 108.115 394.272 108.57 396.127 109.62C396.512 109.83 396.757 110.285 396.757 110.74C396.757 110.95 396.687 111.16 396.582 111.335L395.917 112.49C395.637 112.945 395.217 113.19 394.762 113.19C394.552 113.19 394.342 113.155 394.132 113.05C392.837 112.42 391.682 112.14 390.632 112.14C388.497 112.14 387.202 113.225 387.202 114.835C387.202 119.91 398.297 118.3 398.297 126.455C398.297 130.585 394.692 133.385 390.107 133.385C387.447 133.385 385.277 132.65 382.862 130.41C382.582 130.165 382.407 129.78 382.407 129.395C382.407 129.115 382.512 128.835 382.722 128.625Z" fill="#E52325"/>
</svg>
